<?xml version="1.0" encoding="utf-8"?>
<!-- Generator: Adobe Illustrator 27.5.0, SVG Export Plug-In . SVG Version: 6.00 Build 0)  -->
<svg version="1.1" xmlns="http://www.w3.org/2000/svg" xmlns:xlink="http://www.w3.org/1999/xlink" x="0px" y="0px"
	 viewBox="0 0 500 500" style="enable-background:new 0 0 500 500;" xml:space="preserve">
<g id="BACKGROUND">
</g>
<g id="OBJECTS">
	<path style="fill:#D4D8FF;" d="M408.131,408.911H84.652V200.969c0-64.049,51.922-115.971,115.971-115.971h91.537
		c64.049,0,115.971,51.922,115.971,115.971V408.911z"/>
	<g>
		<g>
			<path style="fill:#FFFFFF;" d="M221.961,202.636c0-18.037-5.937-32.659-44.859-32.659s-44.859,14.622-44.859,32.659
				s5.937,32.659,44.859,32.659c7.923,0,14.46-0.615,19.877-1.732c7.499,6.77,16.614,14.078,19.678,12.691
				c3.179-1.439,1.588-13.192-0.331-22.896C220.83,217.719,221.961,210.503,221.961,202.636z"/>
		</g>
		<g>
			<g>
				<g>
					<g>
						<g>
							<path style="fill:#ED9D88;" d="M188.617,402.027c36.459-0.279,39.702,0.607,46.243-19.762
								c5.459-17.002,19.294-68.773,19.294-68.773c4.1-18.928,0.928-26.648-19.399-18.139
								c-17.018,7.123-31.794,61.772-36.457,77.069c0,0-74.51,9.107-79.784,9.222c-10.48,0.229-30.694,3.468-41.004,8.764
								c-10.314,2.489-8.866,5.91-8.866,5.91c-3.743,1.182-5.721,6.212-1.19,5.818C71.986,401.743,150.313,402.32,188.617,402.027z"
								/>
						</g>
					</g>
				</g>
				<g>
					<g>
						<path d="M204.499,351.314c0,0-0.72,1.503-1.306,4.43c0,0,24.646,11.699,35.868,12.5c0,0,1.364-5.042,1.648-5.766
							C241.734,359.861,204.499,351.314,204.499,351.314z"/>
					</g>
				</g>
				<g>
					<g>
						<path style="fill:#7886FF;" d="M200.337,352.391c6.835-29.015,28.343-62.737,39.333-67.338
							c20.327-8.509,22.106,10.527,18.006,29.455c-6.18,29.413-10.987,48.984-10.987,48.984S211.439,357.884,200.337,352.391z"/>
					</g>
				</g>
				<g>
					<g>
						<path d="M68.644,396.819c-0.214,0-0.412-0.138-0.478-0.353c-0.081-0.264,0.067-0.544,0.331-0.625
							c0.681-0.209,16.769-5.107,25.707-4.377c0.275,0.023,0.48,0.264,0.458,0.539s-0.254,0.483-0.54,0.457
							c-8.757-0.723-25.166,4.286-25.332,4.337C68.742,396.812,68.692,396.819,68.644,396.819z"/>
					</g>
				</g>
				<g>
					<g>
						<path d="M76.074,391.61c-0.218,0-0.419-0.145-0.481-0.365c-0.074-0.266,0.081-0.542,0.347-0.616
							c0.626-0.175,15.364-4.284,18.845-4.384c0.278,0.012,0.506,0.21,0.514,0.486c0.008,0.276-0.21,0.506-0.486,0.514
							c-3.359,0.096-18.452,4.305-18.604,4.347C76.164,391.604,76.119,391.61,76.074,391.61z"/>
					</g>
				</g>
			</g>
			<g>
				<g>
					<path style="fill:#ED9D88;" d="M272.853,257.988l-1.519,19.293l-13.035,4.335c0,0,3.92,29.867,30.397,28.551
						c26.477-1.315,29.95-37.27,29.95-37.27h-13.89l4.972-31.865L272.853,257.988z"/>
				</g>
				<g>
					<path d="M271.846,270.776c0,0,21.768,0,30.758-16.384l-29.751,3.597L271.846,270.776z"/>
				</g>
				<g>
					<path style="fill:#7886FF;" d="M364.803,367.36l-9.53,34.104l-139.932-0.173c0,0,9.806-103.367,22.827-113.014
						c13.021-9.646,27.039-8.478,27.907-9.794c0,0-7.194,16.358,15.811,12.85c23.005-3.508,28.946-18.437,28.946-18.437
						s21.703,0.438,34.724,3.946C358.578,280.351,364.803,367.36,364.803,367.36z"/>
				</g>
				<g>
					<path d="M231.809,398.894c-0.017,0-0.034-0.001-0.051-0.002c-0.274-0.028-0.475-0.273-0.447-0.548
						c0.05-0.494,5.11-49.748,12.655-83.441c0.06-0.269,0.328-0.437,0.597-0.379c0.27,0.06,0.439,0.328,0.378,0.597
						c-7.531,33.635-12.585,82.831-12.635,83.324C232.28,398.702,232.063,398.894,231.809,398.894z"/>
				</g>
			</g>
			<g>
				<g>
					<g>
						<path style="fill:#101229;" d="M344.089,220.212c-0.124-6.954-5.039-12.63-11.379-13.661
							c1.498-3.555,2.325-7.487,2.251-11.632c-0.271-15.239-12.273-27.383-26.805-27.124c-14.533,0.259-26.093,12.823-25.822,28.062
							c0.271,15.239,12.272,27.383,26.805,27.124c2.855-0.051,5.589-0.592,8.147-1.519c0.079,1.136,0.275,2.237,0.595,3.281
							c-6.337,1.225-11.085,7.09-10.961,14.071c0.139,7.776,6.262,13.973,13.677,13.84c7.415-0.132,13.314-6.543,13.176-14.319
							c-0.025-1.413-0.253-2.772-0.646-4.053C339.466,233.059,344.213,227.193,344.089,220.212z"/>
					</g>
				</g>
				<g>
					<g>
						<g>
							<path style="fill:#ED9D88;" d="M249.943,218.4c-3.199,35.152,7.234,44.296,31.444,44.943
								c24.208,0.647,38.55-19.375,39.231-44.524c0.68-25.155-12.569-45.918-36.779-46.57
								C259.629,171.597,252.224,193.339,249.943,218.4z"/>
						</g>
					</g>
					<g>
						<g>
							<g>
								<g>
									<path style="fill:#101229;" d="M296.03,206.846c1.163-0.13,2-1.178,1.87-2.341c-0.13-1.163-1.178-2-2.341-1.87
										l-6.016,0.672c-1.163,0.13-2,1.178-1.87,2.341c0.13,1.163,1.178,2,2.341,1.87L296.03,206.846z"/>
								</g>
							</g>
							<g>
								<g>
									<path style="fill:#101229;" d="M256.569,207.177c-1.154-0.192-1.934-1.284-1.742-2.438
										c0.192-1.154,1.284-1.934,2.438-1.742l5.971,0.995c1.154,0.192,1.934,1.284,1.742,2.438
										c-0.192,1.154-1.284,1.934-2.438,1.742L256.569,207.177z"/>
								</g>
							</g>
						</g>
						<g>
							<g>
								<path d="M274.319,232.093c-0.005,0-0.009,0-0.014,0c-3.304-0.089-5.919-2.849-5.831-6.153
									c0.043-1.6,0.707-3.088,1.869-4.189c1.162-1.102,2.688-1.689,4.284-1.641c0.276,0.008,0.494,0.237,0.486,0.514
									c-0.007,0.276-0.227,0.492-0.514,0.486c-1.347-0.049-2.601,0.45-3.569,1.367c-0.968,0.917-1.522,2.157-1.557,3.491
									c-0.036,1.333,0.45,2.601,1.367,3.569c0.917,0.968,2.157,1.521,3.491,1.557c0.276,0.008,0.494,0.237,0.486,0.514
									C274.811,231.877,274.588,232.093,274.319,232.093z"/>
							</g>
						</g>
						<g>
							<g>
								<path d="M276.751,244.96c-0.119,0-0.239-0.002-0.361-0.005c-3.982-0.107-6.213-1.946-6.306-2.024
									c-0.211-0.178-0.238-0.492-0.061-0.703c0.177-0.211,0.492-0.238,0.704-0.063c0.021,0.017,2.077,1.694,5.691,1.791
									c3.617,0.085,6.042-1.475,6.065-1.49c0.23-0.153,0.54-0.092,0.693,0.139c0.153,0.229,0.092,0.539-0.137,0.693
									C282.935,243.366,280.513,244.96,276.751,244.96z"/>
							</g>
						</g>
					</g>
					<g>
						<g>
							<g>
								<path d="M289.87,219.353c-0.059,2.202,0.535,4.004,2.737,4.064c2.202,0.059,2.892-1.709,2.951-3.911
									c0.059-2.202-0.534-4.004-2.737-4.064C290.619,215.383,289.929,217.151,289.87,219.353z"/>
							</g>
						</g>
					</g>
					<g>
						<g>
							<g>
								<path d="M260.728,218.38c0.098,2.201-0.464,4.013-2.664,4.111c-2.201,0.098-2.922-1.658-3.02-3.858
									c-0.098-2.201,0.463-4.013,2.664-4.111C259.909,214.424,260.63,216.18,260.728,218.38z"/>
							</g>
						</g>
					</g>
					<g>
						<g>
							<g>
								<g>
									<path style="fill:#ED9D88;" d="M313.24,218.918c-1.786,6.449,1.994,13.124,8.443,14.91
										c6.448,1.786,13.124-1.994,14.909-8.442c1.786-6.448-1.994-13.124-8.442-14.91
										C321.701,208.689,315.026,212.469,313.24,218.918z"/>
								</g>
							</g>
							<g>
								<g>
									<g>
										<path d="M320.053,222.523c-0.044,0-0.089-0.006-0.134-0.018c-0.266-0.074-0.422-0.349-0.349-0.615
											c0.981-3.541,4.661-5.623,8.198-4.643c0.266,0.074,0.422,0.349,0.349,0.615c-0.074,0.267-0.351,0.421-0.615,0.349
											c-3.013-0.834-6.134,0.938-6.968,3.945C320.473,222.378,320.272,222.523,320.053,222.523z"/>
									</g>
								</g>
								<g>
									<g>
										<path d="M325.406,228.001c-0.042,0-0.085-0.005-0.127-0.016c-0.267-0.07-0.427-0.343-0.357-0.61
											c1.106-4.234-2.823-8.336-2.862-8.377c-0.192-0.198-0.188-0.515,0.01-0.707c0.198-0.193,0.515-0.188,0.707,0.01
											c0.179,0.184,4.36,4.554,3.113,9.328C325.831,227.852,325.628,228.001,325.406,228.001z"/>
									</g>
								</g>
							</g>
						</g>
					</g>
				</g>
				<g>
					<g>
						<path style="fill:#101229;" d="M298.274,202.085c3.599-1.023,6.5-3.26,8.476-5.941c4.413,9.974,11.043,22.546,15.926,21.109
							c7.977-2.347,7.544-18.679,5.235-24.752c-2.608-6.858-9.785-13.248-18.736-17.808c2.395-3.26,3.287-7.65,1.956-11.94
							c-2.177-7.011-9.361-11.012-16.047-8.936c-4.012,1.245-6.919,4.401-8.144,8.237c-0.021-0.072-0.032-0.144-0.054-0.216
							c-2.282-7.352-10.78-11.248-18.98-8.702c-8.2,2.546-12.997,10.569-10.715,17.921c0.168,0.543,0.381,1.061,0.615,1.566
							c0,0-15.531,1.319-16.342,11.718c-0.811,10.399,12.655,11.563,12.655,11.563s8.83,12.665,26.477,5.095
							C280.596,200.998,289.8,204.492,298.274,202.085z"/>
					</g>
				</g>
			</g>
			<g>
				<g>
					<path d="M352.725,401.454c-6.392,0-2.642-20.004-2.642-20.004H360.4C360.4,381.449,360.44,401.454,352.725,401.454z"/>
				</g>
				<g>
					<path style="fill:#7886FF;" d="M335.792,317.458l-0.503-42.187c29.985,2.093,38.136,20.106,40.852,44.171
						c3.897,34.537,0.06,62.007,0.06,62.007l-48.639-16.839L335.792,317.458"/>
				</g>
				<g>
					<path style="fill:#CF4192;" d="M332.905,213.739c-5.572,0.824-29.718,20.811-31.842,23.077
						c-2.125,2.266-8.348,19.833-8.348,21.893c0,2.059,5.072,0.812,5.072,0.812l36.55-24.155c0,0,2.586-16.493,1.968-19.138
						C335.685,213.582,332.905,213.739,332.905,213.739z"/>
				</g>
				<g>
					<path style="fill:#ED9D88;" d="M356.407,344.916c-5.183-14.901-32.539-84.394-32.539-84.394s11.325-20.13,12.53-22.514
						c2.201-4.356,4.125-8.483,3.224-12.243c-1.374-5.733-10.326-9.538-10.326-9.538c-3.887-3.455-7.184,4.646-7.184,4.646
						c-6.535-0.648-6.45,4.664-6.45,4.664c-1.728-1.296-10.811-2.505-10.605,9.221l4.288-2.358l4.852,1.308
						c0,0-16.459,18.393-16.459,26.6c0,7.6,20.923,120.396,41.885,135.928l0,0l0,0c0,0,2.853,1.66,4.273,1.752
						c5.014,1.543,13.574,2.581,20.907-4.465C379.064,379.816,376.042,340.34,356.407,344.916z"/>
				</g>
				<g>
					<path d="M300.921,280.911c-0.236,0-0.445-0.167-0.491-0.407c-1.91-10.096-3.193-18.212-3.193-20.197
						c0-8.302,15.909-26.176,16.586-26.933c0.184-0.206,0.5-0.223,0.706-0.039c0.206,0.184,0.223,0.5,0.039,0.706
						c-0.163,0.183-16.332,18.344-16.332,26.266c0,1.553,0.994,8.478,3.175,20.012c0.051,0.271-0.127,0.533-0.398,0.584
						C300.983,280.908,300.952,280.911,300.921,280.911z"/>
				</g>
				<g>
					<path d="M305.057,235.258c-0.272,0-0.495-0.218-0.5-0.491c-0.108-6.14,2.301-8.671,4.341-9.714
						c2.279-1.165,4.906-0.882,6.339-0.305c0.135-0.794,0.514-2.03,1.572-3.004c1.17-1.077,2.85-1.546,4.987-1.398
						c0.521-1.153,2.351-4.816,4.839-5.396c1.041-0.243,2.046,0.063,2.993,0.905c0.207,0.183,0.225,0.499,0.042,0.706
						c-0.183,0.206-0.499,0.225-0.706,0.042c-0.699-0.621-1.387-0.842-2.101-0.678c-1.987,0.462-3.77,3.867-4.289,5.139
						c-0.083,0.205-0.29,0.326-0.512,0.309c-2.014-0.202-3.552,0.17-4.568,1.101c-1.335,1.221-1.333,3.041-1.333,3.06
						c0.002,0.19-0.105,0.366-0.274,0.452c-0.17,0.085-0.374,0.069-0.525-0.045c-0.692-0.519-3.496-1.279-6.009,0.005
						c-2.561,1.309-3.875,4.354-3.796,8.806c0.005,0.276-0.215,0.504-0.491,0.509C305.063,235.258,305.06,235.258,305.057,235.258z"
						/>
				</g>
				<g>
					<path d="M321.091,229.331c-0.09,0-0.181-0.025-0.264-0.075l-5.319-3.306c-0.234-0.146-0.306-0.454-0.161-0.689
						c0.146-0.234,0.454-0.306,0.689-0.161l5.319,3.306c0.234,0.146,0.306,0.454,0.161,0.689
						C321.422,229.248,321.258,229.331,321.091,229.331z"/>
				</g>
				<g>
					<path d="M327.431,224.68c-0.09,0-0.181-0.024-0.264-0.075l-5.319-3.306c-0.234-0.146-0.306-0.454-0.161-0.689
						c0.146-0.234,0.454-0.306,0.689-0.161l5.319,3.306c0.234,0.146,0.306,0.454,0.161,0.689
						C327.762,224.596,327.598,224.68,327.431,224.68z"/>
				</g>
				<g>
					<path style="fill:#7886FF;" d="M356.407,344.916c7.059,8.185,5.749,53.477-3.682,56.537
						c15.948,0.381,22.538-10.456,23.476-20.004C377.138,371.9,375.978,337.33,356.407,344.916z"/>
				</g>
			</g>
		</g>
	</g>
	<g>
		<g>
			<g>
				<path d="M209.79,401.454h58.159c1.69,0,3.06-1.37,3.06-3.06l0,0c0-1.69-1.37-3.06-3.06-3.06H209.79c-1.69,0-3.06,1.37-3.06,3.06
					l0,0C206.729,400.084,208.1,401.454,209.79,401.454z"/>
			</g>
			<g>
				<path style="fill:#FFFFFF;" d="M72.328,401.454h152.293c1.69,0,3.06-1.37,3.06-3.06l0,0c0-1.69-1.37-3.06-3.06-3.06H72.328
					c-1.69,0-3.06,1.37-3.06,3.06l0,0C69.268,400.084,70.638,401.454,72.328,401.454z"/>
			</g>
			<g>
				<path d="M216.805,370.25h4.756c6.815,0,12.34-5.524,12.34-12.34v-75.329c0-6.815-5.525-12.34-12.34-12.34h-4.756
					c-6.815,0-12.34,5.525-12.34,12.34v75.329C204.465,364.725,209.99,370.25,216.805,370.25z"/>
			</g>
			<g>
				<path style="fill:#FFFFFF;" d="M81.608,370.25h135.017c6.815,0,12.34-5.524,12.34-12.34v-75.329
					c0-6.815-5.525-12.34-12.34-12.34H81.608c-6.815,0-12.34,5.525-12.34,12.34v75.329C69.268,364.725,74.793,370.25,81.608,370.25z
					"/>
			</g>
			<g>
				
					<rect x="134.77" y="370.25" transform="matrix(-1 -1.224647e-16 1.224647e-16 -1 295.4539 771.7035)" style="fill:#FFFFFF;" width="25.914" height="31.204"/>
			</g>
			<g>
				<path style="fill:#D4D8FF;" d="M135.206,320.246c0,7.682,6.228,13.91,13.91,13.91c7.682,0,13.91-6.228,13.91-13.91
					c0-7.683-6.228-13.91-13.91-13.91C141.434,306.335,135.206,312.563,135.206,320.246z"/>
			</g>
			<g>
				<path d="M199.682,370.75H81.608c-7.08,0-12.84-5.76-12.84-12.84v-75.329c0-7.08,5.76-12.84,12.84-12.84
					c0.276,0,0.5,0.224,0.5,0.5s-0.224,0.5-0.5,0.5c-6.528,0-11.84,5.311-11.84,11.84v75.329c0,6.529,5.312,11.84,11.84,11.84
					h118.074c0.276,0,0.5,0.224,0.5,0.5S199.958,370.75,199.682,370.75z"/>
			</g>
			<g>
				<path d="M72.329,401.954c-1.963,0-3.561-1.597-3.561-3.56c0-1.963,1.597-3.56,3.561-3.56h98.191c0.276,0,0.5,0.224,0.5,0.5
					s-0.224,0.5-0.5,0.5H72.329c-1.412,0-2.561,1.148-2.561,2.56c0,1.412,1.148,2.56,2.561,2.56c0.276,0,0.5,0.224,0.5,0.5
					C72.829,401.73,72.605,401.954,72.329,401.954z"/>
			</g>
			<g>
				<g>
					<path style="fill:#FFFFFF;" d="M308.975,401.762h-35.972c0-6.655,8.053-12.05,17.986-12.05
						C300.922,389.712,308.975,395.107,308.975,401.762z"/>
				</g>
				<g>
					<path d="M278.131,402.659c-0.015,0-0.029,0-0.044-0.002c-0.275-0.024-0.479-0.267-0.455-0.542
						c0.419-4.798,3.531-8.947,7.567-10.089c0.263-0.077,0.542,0.079,0.617,0.345c0.075,0.266-0.079,0.542-0.345,0.617
						c-3.645,1.032-6.46,4.821-6.843,9.214C278.606,402.462,278.388,402.659,278.131,402.659z"/>
				</g>
			</g>
		</g>
		<g>
			<g>
				<path style="fill:#38AB9B;" d="M390.885,347.104c-7.799,2.353-15.089,1.053-16.284-2.905
					c-1.194-3.958,4.159-9.075,11.958-11.428c7.799-2.353,15.089-1.053,16.284,2.906
					C404.038,339.634,398.684,344.75,390.885,347.104z"/>
			</g>
			<g>
				<path d="M415.574,360.092c-0.276,0-0.5-0.224-0.5-0.5v-7.28c-0.009-5.804-1.966-10.323-5.51-12.724
					c-4.569-3.096-11.52-2.822-20.657,0.813c-0.255,0.102-0.547-0.023-0.649-0.28c-0.102-0.256,0.024-0.547,0.28-0.649
					c9.464-3.764,16.727-4.003,21.586-0.712c3.827,2.592,5.94,7.404,5.95,13.551v7.281
					C416.074,359.868,415.851,360.092,415.574,360.092z"/>
			</g>
			<g>
				<path style="fill:#38AB9B;" d="M438.203,321.15c-5.896,5.621-12.988,7.752-15.841,4.76c-2.853-2.992-0.386-9.975,5.51-15.596
					c5.896-5.621,12.988-7.752,15.841-4.76C446.565,308.546,444.099,315.529,438.203,321.15z"/>
			</g>
			<g>
				<path d="M415.626,351.468c-0.001,0-0.001,0-0.001,0c-0.276,0-0.5-0.225-0.499-0.501c0.035-16.097,2.497-21.087,17.564-35.596
					c0.198-0.19,0.516-0.186,0.707,0.014c0.191,0.199,0.186,0.515-0.014,0.707c-14.965,14.411-17.223,18.974-17.258,34.877
					C416.125,351.245,415.902,351.468,415.626,351.468z"/>
			</g>
			<g>
				<path style="fill:#FFBA3C;" d="M437.72,355.519c-0.062,0.089-0.124,0.177-0.188,0.265c-3.391,4.699-3.391,10.97,0,15.669
					c2.066,2.863,3.243,6.161,3.243,9.672c0,10.992-11.541,19.903-25.777,19.903c-14.236,0-25.778-8.911-25.778-19.903
					c0-3.51,1.177-6.808,3.243-9.672c3.391-4.699,3.391-10.97,0-15.669c-0.063-0.088-0.126-0.176-0.188-0.265
					c-2.76-3.965,0.266-9.407,5.097-9.407h35.251C437.454,346.113,440.479,351.554,437.72,355.519z"/>
			</g>
			<g>
				<path style="fill:#38AB9B;" d="M407.409,307.107c5.663,5.856,7.845,12.933,4.873,15.807c-2.972,2.874-9.972,0.457-15.635-5.398
					c-5.663-5.856-7.845-12.932-4.873-15.807S401.746,301.251,407.409,307.107z"/>
			</g>
			<g>
				<path style="fill:#38AB9B;" d="M398.794,367.858c-3.568,7.394-9.503,11.92-13.255,10.109c-3.753-1.811-3.902-9.273-0.334-16.667
					c3.568-7.394,9.503-11.92,13.255-10.109C402.212,353.003,402.362,360.465,398.794,367.858z"/>
			</g>
			<g>
				<path style="fill:#38AB9B;" d="M435.286,380.944c-1.832,8.003-6.609,13.737-10.671,12.807c-4.062-0.93-5.869-8.171-4.038-16.174
					c1.832-8.003,6.609-13.737,10.671-12.807C435.31,365.701,437.118,372.942,435.286,380.944z"/>
			</g>
			<g>
				<path style="fill:#38AB9B;" d="M431.47,293.562c-2.656,7.768-8.006,12.972-11.949,11.624c-3.943-1.348-4.985-8.738-2.329-16.507
					c2.656-7.768,8.006-12.972,11.949-11.624C433.084,278.403,434.127,285.794,431.47,293.562z"/>
			</g>
			<g>
				<path style="fill:#38AB9B;" d="M437.396,355.33c-6.742-4.572-10.327-11.052-8.006-14.474c2.32-3.422,9.667-2.49,16.409,2.082
					c6.742,4.572,10.327,11.052,8.007,14.474C451.485,360.834,444.138,359.902,437.396,355.33z"/>
			</g>
			<g>
				<path d="M441.597,349.634c-0.106,0-0.212-0.034-0.303-0.103c-9.953-7.606-15.901-10.526-19.886-9.77
					c-1.975,0.376-3.59,1.707-5.083,4.187c-0.143,0.236-0.45,0.312-0.686,0.17c-0.237-0.142-0.313-0.45-0.17-0.686
					c1.65-2.742,3.478-4.22,5.752-4.654c4.296-0.816,10.478,2.16,20.681,9.957c0.219,0.168,0.261,0.482,0.094,0.701
					C441.896,349.566,441.748,349.634,441.597,349.634z"/>
			</g>
			<g>
				<path d="M427.931,379.761c-0.082,0-0.165-0.02-0.241-0.062c-0.242-0.133-0.33-0.438-0.197-0.679
					c8.312-15.078,2.317-28.663-4.352-33.096c-2.897-1.927-5.581-1.873-7.176,0.144c-0.171,0.216-0.484,0.254-0.703,0.082
					c-0.216-0.171-0.253-0.486-0.082-0.703c1.924-2.431,5.187-2.568,8.514-0.356c6.978,4.639,13.289,18.784,4.674,34.411
					C428.278,379.668,428.107,379.761,427.931,379.761z"/>
			</g>
			<g>
				<path d="M392.618,363.042c-0.066,0-0.132-0.013-0.195-0.04c-0.254-0.108-0.373-0.402-0.265-0.656
					c4.018-9.462,9.466-15.742,15.34-17.684c2.656-0.879,5.3-0.783,7.547,0.254c-0.387-9.774-2.398-22.062-13.357-32.24
					c-0.202-0.188-0.214-0.504-0.026-0.707c0.187-0.203,0.504-0.214,0.707-0.026c11.552,10.728,13.393,23.697,13.706,33.797
					c0.005,0.182-0.088,0.353-0.245,0.446c-0.158,0.092-0.352,0.093-0.508,0.001c-2.182-1.28-4.779-1.48-7.51-0.577
					c-3.242,1.072-9.466,4.721-14.733,17.125C392.997,362.928,392.812,363.042,392.618,363.042z"/>
			</g>
			<g>
				<path d="M415.574,346.258c-0.276,0-0.5-0.224-0.5-0.5v-0.132c-0.001-26.04,3.135-45.49,8.831-54.767
					c0.145-0.236,0.453-0.309,0.688-0.165c0.235,0.145,0.309,0.453,0.164,0.688c-5.601,9.121-8.685,28.385-8.684,54.243v0.132
					C416.074,346.034,415.851,346.258,415.574,346.258z"/>
			</g>
		</g>
		<g>
			<rect x="45.488" y="401.454" style="fill:#5459BF;" width="400.618" height="13.548"/>
		</g>
		<g>
			<g>
				<path style="fill:#FF6145;" d="M365.632,393.51c4.112,0,12.789-2.453,13.303-7.659h27.486c0,0-3.622,7.659-8.942,7.659
					C392.158,393.51,365.632,393.51,365.632,393.51"/>
			</g>
			<g>
				<rect x="365.632" y="393.51" style="fill:#FF6145;" width="13.653" height="7.659"/>
			</g>
			<g>
				<rect x="379.285" y="393.51" style="fill:#FF6145;" width="27.306" height="7.659"/>
			</g>
			<g>
				<path d="M399.329,397H388.92c-0.276,0-0.5-0.224-0.5-0.5s0.224-0.5,0.5-0.5h10.409c0.276,0,0.5,0.224,0.5,0.5
					S399.605,397,399.329,397z"/>
			</g>
			<g>
				<path d="M396.496,399.004h-17.211c-0.276,0-0.5-0.224-0.5-0.5s0.224-0.5,0.5-0.5h17.211c0.276,0,0.5,0.224,0.5,0.5
					S396.772,399.004,396.496,399.004z"/>
			</g>
			<g>
				<path d="M376.7,399.004h-4.895c-0.276,0-0.5-0.224-0.5-0.5s0.224-0.5,0.5-0.5h4.895c0.276,0,0.5,0.224,0.5,0.5
					S376.977,399.004,376.7,399.004z"/>
			</g>
			<g>
				<path d="M370.532,397h-4.895c-0.276,0-0.5-0.224-0.5-0.5s0.224-0.5,0.5-0.5h4.895c0.276,0,0.5,0.224,0.5,0.5
					S370.808,397,370.532,397z"/>
			</g>
			<g>
				<path d="M406.591,394.01h-40.958c-0.276,0-0.5-0.224-0.5-0.5c0-0.276,0.224-0.5,0.5-0.5h40.958c0.276,0,0.5,0.224,0.5,0.5
					C407.091,393.787,406.867,394.01,406.591,394.01z"/>
			</g>
			<g>
				<path d="M379.285,401.669c-0.276,0-0.5-0.224-0.5-0.5v-7.659c0-0.276,0.224-0.5,0.5-0.5c0.276,0,0.5,0.224,0.5,0.5v7.659
					C379.785,401.445,379.561,401.669,379.285,401.669z"/>
			</g>
		</g>
	</g>
</g>
</svg>
